# Blender 3.2.0
# www.blender.org
o Plane.001
v -0.500000 0.000000 0.500000
v 0.500000 0.000000 0.500000
v -0.500000 0.000000 -0.500000
v 0.500000 0.000000 -0.500000
v -0.467345 0.000000 -0.467345
v -0.467345 0.000000 0.467345
v 0.467345 0.000000 0.467345
v 0.467345 0.000000 -0.467345
vn -0.0000 1.0000 -0.0000
vt 0.000000 0.000000
vt 1.000000 0.000000
vt 0.000000 1.000000
vt 1.000000 1.000000
vt 0.032655 0.967345
vt 0.032655 0.032655
vt 0.967345 0.032655
vt 0.967345 0.967345
s 0
f 6/6/1 5/5/1 3/3/1 1/1/1
f 7/7/1 6/6/1 1/1/1 2/2/1
f 8/8/1 7/7/1 2/2/1 4/4/1
f 5/5/1 8/8/1 4/4/1 3/3/1
